<svg width="170" height="22" viewBox="0 0 170 22" fill="none" xmlns="http://www.w3.org/2000/svg">
<path d="M22.8604 1.08984V21.1958H17.1292V7.02574L13.4098 21.1958H9.49152L5.62589 6.82105V21.1958H1V1.08984H9.06461L11.9828 11.7686L14.7666 1.08984H22.8604Z" fill="black" stroke="black" stroke-width="0.584816" stroke-miterlimit="10"/>
<path d="M42.6685 1.08984V14.4061C42.6685 16.9325 41.92 18.7454 40.4228 19.8507C38.9257 20.9561 36.9724 21.5058 34.5688 21.5058C32.0366 21.5058 30.0014 20.9736 28.4634 19.9151C26.9253 18.8566 26.1592 17.1255 26.1592 14.7278V1.08984H32.4343V14.0084C32.4343 14.9734 32.6389 15.6752 33.0425 16.1138C33.446 16.5582 34.0951 16.7746 34.9899 16.7746C35.7326 16.7746 36.3408 16.6167 36.8204 16.2951C37.2941 15.9734 37.5806 15.6167 37.6742 15.2132C37.7678 14.8096 37.8146 14.026 37.8146 12.8564V1.08984H42.6685Z" fill="black" stroke="black" stroke-width="0.584816" stroke-miterlimit="10"/>
<path d="M63.3356 9.97944V21.512H59.4349V18.4651C58.1892 20.0734 56.4113 21.512 53.9668 21.512C51.3761 21.512 49.2415 20.6055 47.5748 18.7926C45.9081 16.9797 45.0718 14.5293 45.0718 11.4356C45.0718 8.42967 45.8788 5.90327 47.4929 3.85642C49.107 1.80956 51.5106 0.786133 54.7037 0.786133C57.1014 0.786133 59.0313 1.39434 60.4934 2.61076C61.9554 3.82717 62.9028 5.55823 63.3356 7.79807L57.4231 7.80392C57.1307 5.71028 56.1423 5.24828 54.5984 5.24828C52.575 5.24828 51.5632 7.17232 51.5632 11.0204C51.5632 13.348 51.8849 14.8802 52.534 15.6229C53.1832 16.3656 53.9668 16.7341 54.8908 16.7341C55.6394 16.7341 56.271 16.506 56.7973 16.0557C57.3237 15.6054 57.5927 14.9855 57.5985 14.2018H54.2709V9.93266L63.3356 9.97944Z" fill="black" stroke="black" stroke-width="0.584816" stroke-miterlimit="10"/>
<path d="M75.2834 21.5062C72.4529 21.5062 70.1487 20.5705 68.365 18.6932C66.5813 16.8159 65.6924 14.3071 65.6924 11.1666C65.6924 8.16066 66.5462 5.68104 68.248 3.7219C69.9498 1.76277 72.3183 0.786133 75.3418 0.786133C78.1431 0.786133 80.4239 1.71014 82.1842 3.55815C83.9445 5.40617 84.8276 7.86826 84.8276 10.9502C84.8276 14.1433 83.9386 16.699 82.1608 18.623C80.383 20.5471 78.0905 21.5062 75.2834 21.5062ZM75.2541 16.9446C76.2951 16.9446 77.0437 16.4884 77.4998 15.582C77.956 14.6755 78.184 13.0088 78.184 10.5935C78.184 7.09629 77.2483 5.34769 75.3711 5.34769C73.3476 5.34769 72.3359 7.34192 72.3359 11.3304C72.3359 15.0732 73.3067 16.9446 75.2541 16.9446Z" fill="black" stroke="black" stroke-width="0.584816" stroke-miterlimit="10"/>
<path d="M97.7402 21.7107V1.21289H105.67C109.115 1.21289 111.694 2.23631 113.402 4.27732C115.109 6.31833 115.969 8.68098 115.969 11.3653C115.969 14.4297 115.051 16.921 113.214 18.8334C111.378 20.7516 108.992 21.7107 106.056 21.7107H97.7402ZM104.033 16.9971H105.67C106.711 16.9971 107.589 16.4941 108.308 15.4824C109.021 14.4707 109.384 13.0963 109.384 11.3536C109.384 9.86231 109.068 8.57572 108.431 7.49381C107.793 6.4119 106.875 5.87387 105.676 5.87387H104.039V16.9971H104.033Z" fill="black" stroke="black" stroke-width="0.584816" stroke-miterlimit="10"/>
<path d="M134.051 16.8158V21.7107H118.63V1.21289H134.051V5.94405H124.8V8.9149H132.279V13.4648H124.8V16.8158H134.051Z" fill="black" stroke="black" stroke-width="0.584816" stroke-miterlimit="10"/>
<path d="M142.929 14.266V21.7166H136.549V1.21875H145.304C147.485 1.21875 149.146 1.47022 150.28 1.96731C151.415 2.47026 152.315 3.23638 152.982 4.26565C153.649 5.29493 153.982 6.45286 153.982 7.73361C153.982 9.68689 153.304 11.26 151.941 12.4648C150.579 13.6695 148.76 14.266 146.491 14.266H142.929ZM142.836 9.86233H144.935C146.789 9.86233 147.713 9.18395 147.713 7.82133C147.713 6.54058 146.859 5.89728 145.146 5.89728H142.836V9.86233Z" fill="black" stroke="black" stroke-width="0.584816" stroke-miterlimit="10"/>
<path d="M164.748 6.12534V21.7165H158.789V6.12534H154.538V1.21289H169V6.12534H164.748Z" fill="black" stroke="black" stroke-width="0.584816" stroke-miterlimit="10"/>
<path d="M92.4417 16.5068H87.2368V21.7117H92.4417V16.5068Z" fill="black" stroke="black" stroke-width="0.584816" stroke-miterlimit="10"/>
</svg>
