<svg width="235" height="31" viewBox="0 0 235 31" fill="none" xmlns="http://www.w3.org/2000/svg">
<path d="M31.3183 1.20703V29.0921H23.3697V9.43955L18.2112 29.0921H12.7769L7.41567 9.15567V29.0921H1V1.20703H12.1848L16.2322 16.0174L20.0929 1.20703H31.3183Z" fill="black" stroke="black" stroke-width="0.811084" stroke-miterlimit="10"/>
<path d="M58.79 1.20703V19.6754C58.79 23.1793 57.7518 25.6937 55.6754 27.2266C53.599 28.7596 50.89 29.522 47.5565 29.522C44.0445 29.522 41.2219 28.7839 39.0887 27.3158C36.9556 25.8478 35.8931 23.447 35.8931 20.1215V1.20703H44.596V19.1239C44.596 20.4622 44.8799 21.4355 45.4395 22.0438C45.9992 22.6602 46.8995 22.9603 48.1404 22.9603C49.1705 22.9603 50.014 22.7413 50.6791 22.2952C51.3361 21.8491 51.7335 21.3544 51.8633 20.7947C51.9931 20.2351 52.058 19.1482 52.058 17.5261V1.20703H58.79Z" fill="black" stroke="black" stroke-width="0.811084" stroke-miterlimit="10"/>
<path d="M87.4537 13.5364V29.531H82.0438V25.3052C80.3161 27.5357 77.8504 29.531 74.4601 29.531C70.867 29.531 67.9066 28.2738 65.595 25.7594C63.2834 23.2451 62.1235 19.8466 62.1235 15.556C62.1235 11.387 63.2428 7.88312 65.4814 5.04432C67.72 2.20553 71.0536 0.786133 75.4821 0.786133C78.8075 0.786133 81.4841 1.62966 83.5118 3.31671C85.5395 5.00377 86.8535 7.40457 87.4537 10.511L79.2536 10.5191C78.8481 7.61546 77.4773 6.97471 75.3361 6.97471C72.5297 6.97471 71.1266 9.64317 71.1266 14.9801C71.1266 18.2082 71.5727 20.3333 72.473 21.3633C73.3733 22.3934 74.4601 22.9044 75.7416 22.9044C76.7798 22.9044 77.6558 22.5881 78.3858 21.9635C79.1157 21.339 79.4888 20.4793 79.4969 19.3924H74.8819V13.4715L87.4537 13.5364Z" fill="black" stroke="black" stroke-width="0.811084" stroke-miterlimit="10"/>
<path d="M104.024 29.5228C100.098 29.5228 96.9026 28.2251 94.4288 25.6215C91.955 23.0179 90.7222 19.5384 90.7222 15.1829C90.7222 11.0139 91.9063 7.5749 94.2666 4.85777C96.6269 2.14063 99.9117 0.786133 104.105 0.786133C107.99 0.786133 111.153 2.06764 113.595 4.63066C116.036 7.19369 117.261 10.6084 117.261 14.8828C117.261 19.3113 116.028 22.8557 113.562 25.5242C111.097 28.1927 107.917 29.5228 104.024 29.5228ZM103.983 23.1964C105.427 23.1964 106.465 22.5637 107.098 21.3065C107.731 20.0494 108.047 17.7378 108.047 14.388C108.047 9.53772 106.749 7.11258 104.146 7.11258C101.339 7.11258 99.9361 9.87838 99.9361 15.41C99.9361 20.6009 101.282 23.1964 103.983 23.1964Z" fill="black" stroke="black" stroke-width="0.811084" stroke-miterlimit="10"/>
<path d="M135.169 29.8074V1.37891H146.168C150.945 1.37891 154.522 2.7983 156.89 5.62898C159.259 8.45966 160.451 11.7364 160.451 15.4593C160.451 19.7094 159.178 23.1646 156.631 25.8169C154.084 28.4772 150.775 29.8074 146.703 29.8074H135.169ZM143.897 23.2701H146.168C147.611 23.2701 148.828 22.5725 149.826 21.1693C150.815 19.7662 151.318 17.8601 151.318 15.4431C151.318 13.3748 150.88 11.5904 149.996 10.0899C149.112 8.58943 147.839 7.84325 146.176 7.84325H143.905V23.2701H143.897Z" fill="black" stroke="black" stroke-width="0.811084" stroke-miterlimit="10"/>
<path d="M185.529 23.0186V29.8074H164.141V1.37891H185.529V7.94057H172.698V12.0609H183.072V18.3711H172.698V23.0186H185.529Z" fill="black" stroke="black" stroke-width="0.811084" stroke-miterlimit="10"/>
<path d="M197.842 19.482V29.8152H188.993V1.38672H201.135C204.16 1.38672 206.464 1.73548 208.037 2.42491C209.611 3.12244 210.86 4.18498 211.785 5.61248C212.709 7.03999 213.172 8.64593 213.172 10.4222C213.172 13.1312 212.231 15.313 210.341 16.9839C208.451 18.6547 205.929 19.482 202.782 19.482H197.842ZM197.712 13.3745H200.624C203.195 13.3745 204.477 12.4337 204.477 10.5439C204.477 8.76759 203.293 7.87539 200.916 7.87539H197.712V13.3745Z" fill="black" stroke="black" stroke-width="0.811084" stroke-miterlimit="10"/>
<path d="M228.103 8.19201V29.8155H219.838V8.19201H213.942V1.37891H234V8.19201H228.103Z" fill="black" stroke="black" stroke-width="0.811084" stroke-miterlimit="10"/>
<path d="M127.821 22.5889H120.602V29.8075H127.821V22.5889Z" fill="black" stroke="black" stroke-width="0.811084" stroke-miterlimit="10"/>
</svg>
