<svg width="929" height="119" viewBox="0 0 929 119" fill="none" xmlns="http://www.w3.org/2000/svg">
<path d="M122.33 3.45801V114.131H90.7828V36.132L70.3094 114.131H48.7414L27.4631 35.0053V114.131H2V3.45801H46.3914L62.4548 62.2389L77.7777 3.45801H122.33Z" fill="black" stroke="black" stroke-width="3.2191" stroke-miterlimit="10"/>
<path d="M231.361 3.45801V76.7571C231.361 90.6636 227.241 100.643 219 106.727C210.759 112.811 200.007 115.837 186.777 115.837C172.838 115.837 161.635 112.908 153.169 107.081C144.703 101.254 140.486 91.7259 140.486 78.5275V3.45801H175.027V74.5681C175.027 79.8796 176.154 83.7425 178.375 86.1568C180.596 88.6033 184.169 89.7944 189.094 89.7944C193.183 89.7944 196.53 88.9252 199.17 87.1547C201.778 85.3842 203.355 83.4206 203.87 81.1994C204.385 78.9783 204.643 74.6647 204.643 68.2265V3.45801H231.361Z" fill="black" stroke="black" stroke-width="3.2191" stroke-miterlimit="10"/>
<path d="M345.124 52.3905V115.871H323.653V99.0997C316.796 107.952 307.01 115.871 293.554 115.871C279.294 115.871 267.544 110.882 258.37 100.902C249.195 90.9232 244.592 77.4351 244.592 60.406C244.592 43.8598 249.034 29.9533 257.919 18.6864C266.804 7.41956 280.034 1.78613 297.61 1.78613C310.809 1.78613 321.432 5.13399 329.48 11.8297C337.527 18.5255 342.742 28.054 345.124 40.3832L312.579 40.4154C310.97 28.891 305.529 26.3479 297.031 26.3479C285.893 26.3479 280.324 36.9387 280.324 58.1205C280.324 70.9325 282.094 79.3665 285.668 83.4548C289.241 87.543 293.554 89.5711 298.641 89.5711C302.761 89.5711 306.238 88.3157 309.135 85.837C312.032 83.3583 313.513 79.946 313.545 75.6324H295.228V52.133L345.124 52.3905Z" fill="black" stroke="black" stroke-width="3.2191" stroke-miterlimit="10"/>
<path d="M410.891 115.839C395.31 115.839 382.627 110.688 372.809 100.355C362.991 90.0217 358.098 76.2118 358.098 58.9252C358.098 42.379 362.798 28.73 372.165 17.946C381.533 7.162 394.57 1.78613 411.213 1.78613C426.632 1.78613 439.187 6.87228 448.876 17.0447C458.566 27.217 463.427 40.7695 463.427 57.7342C463.427 75.3105 458.534 89.3779 448.748 99.9688C438.962 110.56 426.343 115.839 410.891 115.839ZM410.73 90.73C416.46 90.73 420.58 88.219 423.091 83.2294C425.602 78.2398 426.858 69.0654 426.858 55.7705C426.858 36.5202 421.707 26.8951 411.374 26.8951C400.236 26.8951 394.667 37.8723 394.667 59.8266C394.667 80.4288 400.01 90.73 410.73 90.73Z" fill="black" stroke="black" stroke-width="3.2191" stroke-miterlimit="10"/>
<path d="M534.503 116.968V4.13867H578.154C597.115 4.13867 611.311 9.77207 620.711 21.0067C630.111 32.2414 634.843 45.2466 634.843 60.0223C634.843 76.8904 629.789 90.6038 619.681 101.13C609.573 111.689 596.439 116.968 580.279 116.968H534.503ZM569.141 91.0222H578.154C583.884 91.0222 588.713 88.2538 592.673 82.6848C596.6 77.1157 598.596 69.5508 598.596 59.9579C598.596 51.7492 596.857 44.6672 593.349 38.7118C589.84 32.7565 584.786 29.7949 578.187 29.7949H569.173V91.0222H569.141Z" fill="black" stroke="black" stroke-width="3.2191" stroke-miterlimit="10"/>
<path d="M734.377 90.0243V116.968H649.49V4.13867H734.377V30.1812H683.451V46.5342H724.624V71.5788H683.451V90.0243H734.377Z" fill="black" stroke="black" stroke-width="3.2191" stroke-miterlimit="10"/>
<path d="M783.244 75.9881V117H748.124V4.16992H796.314C808.321 4.16992 817.463 5.55413 823.708 8.29037C829.953 11.0588 834.911 15.2759 838.58 20.9415C842.25 26.6071 844.085 32.9809 844.085 40.0308C844.085 50.7826 840.351 59.442 832.85 66.0733C825.35 72.7047 815.338 75.9881 802.848 75.9881H783.244ZM782.729 51.7483H794.285C804.49 51.7483 809.576 48.0141 809.576 40.5136C809.576 33.4638 804.876 29.9228 795.444 29.9228H782.729V51.7483Z" fill="black" stroke="black" stroke-width="3.2191" stroke-miterlimit="10"/>
<path d="M903.349 31.1791V117H870.546V31.1791H847.143V4.13867H926.751V31.1791H903.349Z" fill="black" stroke="black" stroke-width="3.2191" stroke-miterlimit="10"/>
<path d="M505.338 88.3193H476.688V116.969H505.338V88.3193Z" fill="black" stroke="black" stroke-width="3.2191" stroke-miterlimit="10"/>
</svg>
